<svg width="541" height="277" viewBox="0 0 541 277" fill="none" xmlns="http://www.w3.org/2000/svg">
<path d="M526 254.5H28V255.5H526V254.5Z" fill="#CCCCCC"/>
<path d="M526 193.5H28V194.5H526V193.5Z" fill="#CCCCCC"/>
<path d="M526 131.5H28V132.5H526V131.5Z" fill="#CCCCCC"/>
<path d="M526 70.5H28V71.5H526V70.5Z" fill="#CCCCCC"/>
<path d="M526 8.5H28V9.5H526V8.5Z" fill="#CCCCCC"/>
<path d="M526 223.5H28V224.5H526V223.5Z" fill="#EBEBEB"/>
<path d="M526 162.5H28V163.5H526V162.5Z" fill="#EBEBEB"/>
<path d="M526 100.5H28V101.5H526V100.5Z" fill="#EBEBEB"/>
<path d="M526 39.5H28V40.5H526V39.5Z" fill="#EBEBEB"/>
<path d="M28.5 255V112.935L111.333 109.245L194.167 115.395L277 93.255L359.833 82.185L442.667 76.65L525.5 72.96V255H28.5Z" fill="#FF0004" fill-opacity="0.54"/>
<path d="M28.5 255H111.333H194.167L275.5 84L289.5 77L359.833 66.81L442.667 62.505L525.5 61.275V255H28.5Z" fill="#8A8A8A" fill-opacity="0.41"/>
<path d="M526 254.5H28V255.5H526V254.5Z" fill="#333333"/>
<path d="M28.5 112.935L111.333 109.245L189.104 115.019C192.455 115.268 195.825 114.952 199.071 114.084L277 93.255L359.833 82.185L442.667 76.65L525.5 72.96" stroke="#E0440E" stroke-width="2"/>
<path d="M28.5 255H111.333H175.106C186.739 255 197.322 248.276 202.264 237.745L270.104 93.1885C274.407 84.0207 283.044 77.6424 293.072 76.2278L359.833 66.81L442.667 62.505L525.5 61.275" stroke="#8A8A8A" stroke-width="2"/>
<path d="M19.3706 273.55H18.228V266.269C17.953 266.532 17.5911 266.794 17.1426 267.056C16.6982 267.319 16.2983 267.515 15.9429 267.647V266.542C16.5819 266.242 17.1405 265.878 17.6187 265.45C18.0968 265.023 18.4354 264.608 18.6343 264.206H19.3706V273.55ZM22.4746 271.398L23.5728 271.297C23.6659 271.813 23.8436 272.187 24.106 272.42C24.3683 272.653 24.7048 272.769 25.1152 272.769C25.4665 272.769 25.7733 272.689 26.0356 272.528C26.3022 272.367 26.5202 272.154 26.6895 271.887C26.8587 271.616 27.0005 271.252 27.1147 270.795C27.229 270.338 27.2861 269.873 27.2861 269.399C27.2861 269.348 27.284 269.272 27.2798 269.17C27.0513 269.534 26.7381 269.83 26.3403 270.059C25.9468 270.283 25.5194 270.395 25.0581 270.395C24.2879 270.395 23.6362 270.116 23.103 269.557C22.5698 268.999 22.3032 268.262 22.3032 267.348C22.3032 266.405 22.5804 265.645 23.1348 265.07C23.6934 264.494 24.3916 264.206 25.2295 264.206C25.8346 264.206 26.3869 264.369 26.8862 264.695C27.3898 265.021 27.7707 265.486 28.0288 266.091C28.2912 266.692 28.4224 267.564 28.4224 268.707C28.4224 269.896 28.2933 270.844 28.0352 271.55C27.777 272.253 27.3919 272.788 26.8799 273.156C26.3721 273.525 25.7754 273.709 25.0898 273.709C24.362 273.709 23.7674 273.508 23.3062 273.106C22.8449 272.699 22.5677 272.13 22.4746 271.398ZM27.1528 267.291C27.1528 266.635 26.9772 266.115 26.626 265.73C26.279 265.345 25.86 265.152 25.3691 265.152C24.8613 265.152 24.4191 265.359 24.0425 265.774C23.6659 266.189 23.4775 266.726 23.4775 267.386C23.4775 267.979 23.6553 268.461 24.0107 268.834C24.3704 269.202 24.8127 269.386 25.3374 269.386C25.8664 269.386 26.3001 269.202 26.6387 268.834C26.9814 268.461 27.1528 267.947 27.1528 267.291ZM35.4683 266.523L34.332 266.612C34.2305 266.163 34.0866 265.838 33.9004 265.634C33.5915 265.309 33.2106 265.146 32.7578 265.146C32.3939 265.146 32.0744 265.247 31.7993 265.45C31.4396 265.713 31.1561 266.096 30.9487 266.599C30.7414 267.103 30.6335 267.82 30.625 268.751C30.9001 268.332 31.2365 268.021 31.6343 267.818C32.0321 267.615 32.4489 267.513 32.8848 267.513C33.6465 267.513 34.2939 267.795 34.8271 268.358C35.3646 268.916 35.6333 269.64 35.6333 270.529C35.6333 271.112 35.5063 271.656 35.2524 272.16C35.0028 272.659 34.6579 273.042 34.2178 273.309C33.7777 273.575 33.2783 273.709 32.7197 273.709C31.7676 273.709 30.991 273.36 30.3901 272.661C29.7892 271.959 29.4888 270.804 29.4888 269.195C29.4888 267.397 29.821 266.089 30.4854 265.273C31.0651 264.562 31.8459 264.206 32.8276 264.206C33.5597 264.206 34.1585 264.411 34.624 264.822C35.0938 265.232 35.3752 265.799 35.4683 266.523ZM30.8027 270.535C30.8027 270.928 30.8853 271.305 31.0503 271.665C31.2196 272.024 31.4544 272.299 31.7549 272.49C32.0553 272.676 32.3706 272.769 32.7007 272.769C33.1831 272.769 33.5978 272.575 33.9448 272.185C34.2918 271.796 34.4653 271.267 34.4653 270.598C34.4653 269.955 34.2939 269.449 33.9512 269.081C33.6084 268.709 33.1768 268.523 32.6562 268.523C32.14 268.523 31.702 268.709 31.3423 269.081C30.9826 269.449 30.8027 269.934 30.8027 270.535ZM36.7759 268.961C36.7759 267.86 36.888 266.976 37.1123 266.307C37.3408 265.634 37.6772 265.116 38.1216 264.752C38.5701 264.388 39.133 264.206 39.8101 264.206C40.3094 264.206 40.7474 264.308 41.124 264.511C41.5007 264.71 41.8117 265 42.0571 265.381C42.3026 265.757 42.4951 266.218 42.6348 266.764C42.7744 267.306 42.8442 268.038 42.8442 268.961C42.8442 270.052 42.7321 270.935 42.5078 271.608C42.2835 272.276 41.9471 272.795 41.4985 273.163C41.0542 273.527 40.4914 273.709 39.8101 273.709C38.9129 273.709 38.2083 273.387 37.6963 272.744C37.0827 271.969 36.7759 270.708 36.7759 268.961ZM37.9502 268.961C37.9502 270.488 38.1279 271.506 38.4834 272.014C38.8431 272.517 39.2853 272.769 39.8101 272.769C40.3348 272.769 40.7749 272.515 41.1304 272.008C41.4901 271.5 41.6699 270.484 41.6699 268.961C41.6699 267.429 41.4901 266.411 41.1304 265.907C40.7749 265.404 40.3306 265.152 39.7974 265.152C39.2726 265.152 38.8537 265.374 38.5405 265.819C38.147 266.386 37.9502 267.433 37.9502 268.961Z" fill="#222222"/>
<path d="M102.204 273.55H101.061V266.269C100.786 266.532 100.424 266.794 99.9759 267.056C99.5316 267.319 99.1317 267.515 98.7762 267.647V266.542C99.4152 266.242 99.9738 265.878 100.452 265.45C100.93 265.023 101.269 264.608 101.468 264.206H102.204V273.55ZM105.308 271.398L106.406 271.297C106.499 271.813 106.677 272.187 106.939 272.42C107.202 272.653 107.538 272.769 107.949 272.769C108.3 272.769 108.607 272.689 108.869 272.528C109.136 272.367 109.354 272.154 109.523 271.887C109.692 271.616 109.834 271.252 109.948 270.795C110.062 270.338 110.119 269.873 110.119 269.399C110.119 269.348 110.117 269.272 110.113 269.17C109.885 269.534 109.571 269.83 109.174 270.059C108.78 270.283 108.353 270.395 107.891 270.395C107.121 270.395 106.47 270.116 105.936 269.557C105.403 268.999 105.137 268.262 105.137 267.348C105.137 266.405 105.414 265.645 105.968 265.07C106.527 264.494 107.225 264.206 108.063 264.206C108.668 264.206 109.22 264.369 109.72 264.695C110.223 265.021 110.604 265.486 110.862 266.091C111.125 266.692 111.256 267.564 111.256 268.707C111.256 269.896 111.127 270.844 110.868 271.55C110.61 272.253 110.225 272.788 109.713 273.156C109.205 273.525 108.609 273.709 107.923 273.709C107.195 273.709 106.601 273.508 106.139 273.106C105.678 272.699 105.401 272.13 105.308 271.398ZM109.986 267.291C109.986 266.635 109.811 266.115 109.459 265.73C109.112 265.345 108.693 265.152 108.202 265.152C107.695 265.152 107.252 265.359 106.876 265.774C106.499 266.189 106.311 266.726 106.311 267.386C106.311 267.979 106.489 268.461 106.844 268.834C107.204 269.202 107.646 269.386 108.171 269.386C108.7 269.386 109.133 269.202 109.472 268.834C109.815 268.461 109.986 267.947 109.986 267.291ZM112.449 265.463V264.365H118.473V265.254C117.881 265.884 117.292 266.722 116.708 267.767C116.129 268.813 115.68 269.887 115.363 270.992C115.134 271.771 114.988 272.623 114.925 273.55H113.75C113.763 272.818 113.907 271.933 114.182 270.897C114.457 269.86 114.851 268.861 115.363 267.901C115.879 266.936 116.427 266.123 117.007 265.463H112.449ZM119.609 268.961C119.609 267.86 119.721 266.976 119.946 266.307C120.174 265.634 120.511 265.116 120.955 264.752C121.403 264.388 121.966 264.206 122.643 264.206C123.143 264.206 123.581 264.308 123.957 264.511C124.334 264.71 124.645 265 124.89 265.381C125.136 265.757 125.328 266.218 125.468 266.764C125.608 267.306 125.678 268.038 125.678 268.961C125.678 270.052 125.565 270.935 125.341 271.608C125.117 272.276 124.78 272.795 124.332 273.163C123.888 273.527 123.325 273.709 122.643 273.709C121.746 273.709 121.042 273.387 120.53 272.744C119.916 271.969 119.609 270.708 119.609 268.961ZM120.784 268.961C120.784 270.488 120.961 271.506 121.317 272.014C121.676 272.517 122.119 272.769 122.643 272.769C123.168 272.769 123.608 272.515 123.964 272.008C124.323 271.5 124.503 270.484 124.503 268.961C124.503 267.429 124.323 266.411 123.964 265.907C123.608 265.404 123.164 265.152 122.631 265.152C122.106 265.152 121.687 265.374 121.374 265.819C120.98 266.386 120.784 267.433 120.784 268.961Z" fill="#222222"/>
<path d="M185.037 273.55H183.895V266.269C183.62 266.532 183.258 266.794 182.809 267.056C182.365 267.319 181.965 267.515 181.61 267.647V266.542C182.249 266.242 182.807 265.878 183.285 265.45C183.764 265.023 184.102 264.608 184.301 264.206H185.037V273.55ZM188.141 271.398L189.239 271.297C189.333 271.813 189.51 272.187 189.773 272.42C190.035 272.653 190.371 272.769 190.782 272.769C191.133 272.769 191.44 272.689 191.702 272.528C191.969 272.367 192.187 272.154 192.356 271.887C192.525 271.616 192.667 271.252 192.781 270.795C192.896 270.338 192.953 269.873 192.953 269.399C192.953 269.348 192.951 269.272 192.946 269.17C192.718 269.534 192.405 269.83 192.007 270.059C191.613 270.283 191.186 270.395 190.725 270.395C189.955 270.395 189.303 270.116 188.77 269.557C188.237 268.999 187.97 268.262 187.97 267.348C187.97 266.405 188.247 265.645 188.801 265.07C189.36 264.494 190.058 264.206 190.896 264.206C191.501 264.206 192.054 264.369 192.553 264.695C193.056 265.021 193.437 265.486 193.695 266.091C193.958 266.692 194.089 267.564 194.089 268.707C194.089 269.896 193.96 270.844 193.702 271.55C193.444 272.253 193.059 272.788 192.547 273.156C192.039 273.525 191.442 273.709 190.757 273.709C190.029 273.709 189.434 273.508 188.973 273.106C188.512 272.699 188.234 272.13 188.141 271.398ZM192.82 267.291C192.82 266.635 192.644 266.115 192.293 265.73C191.946 265.345 191.527 265.152 191.036 265.152C190.528 265.152 190.086 265.359 189.709 265.774C189.333 266.189 189.144 266.726 189.144 267.386C189.144 267.979 189.322 268.461 189.677 268.834C190.037 269.202 190.479 269.386 191.004 269.386C191.533 269.386 191.967 269.202 192.305 268.834C192.648 268.461 192.82 267.947 192.82 267.291ZM196.965 268.504C196.491 268.33 196.139 268.083 195.911 267.761C195.682 267.439 195.568 267.054 195.568 266.606C195.568 265.929 195.811 265.359 196.298 264.898C196.785 264.437 197.432 264.206 198.24 264.206C199.053 264.206 199.707 264.443 200.202 264.917C200.697 265.387 200.945 265.96 200.945 266.637C200.945 267.069 200.83 267.446 200.602 267.767C200.377 268.085 200.035 268.33 199.573 268.504C200.145 268.69 200.578 268.99 200.875 269.405C201.175 269.82 201.325 270.315 201.325 270.89C201.325 271.686 201.044 272.355 200.481 272.896C199.918 273.438 199.178 273.709 198.259 273.709C197.341 273.709 196.601 273.438 196.038 272.896C195.475 272.35 195.194 271.671 195.194 270.859C195.194 270.253 195.346 269.748 195.651 269.341C195.959 268.931 196.397 268.652 196.965 268.504ZM196.736 266.568C196.736 267.008 196.878 267.367 197.161 267.647C197.445 267.926 197.813 268.066 198.266 268.066C198.706 268.066 199.066 267.928 199.345 267.653C199.628 267.374 199.77 267.033 199.77 266.631C199.77 266.212 199.624 265.861 199.332 265.577C199.044 265.29 198.685 265.146 198.253 265.146C197.817 265.146 197.455 265.285 197.168 265.565C196.88 265.844 196.736 266.178 196.736 266.568ZM196.368 270.865C196.368 271.191 196.444 271.506 196.596 271.811C196.753 272.115 196.984 272.352 197.288 272.522C197.593 272.687 197.921 272.769 198.272 272.769C198.818 272.769 199.269 272.594 199.624 272.242C199.98 271.891 200.157 271.445 200.157 270.903C200.157 270.353 199.973 269.898 199.605 269.538C199.241 269.179 198.784 268.999 198.234 268.999C197.697 268.999 197.25 269.176 196.895 269.532C196.543 269.887 196.368 270.332 196.368 270.865ZM202.443 268.961C202.443 267.86 202.555 266.976 202.779 266.307C203.008 265.634 203.344 265.116 203.788 264.752C204.237 264.388 204.8 264.206 205.477 264.206C205.976 264.206 206.414 264.308 206.791 264.511C207.167 264.71 207.478 265 207.724 265.381C207.969 265.757 208.162 266.218 208.301 266.764C208.441 267.306 208.511 268.038 208.511 268.961C208.511 270.052 208.399 270.935 208.174 271.608C207.95 272.276 207.614 272.795 207.165 273.163C206.721 273.527 206.158 273.709 205.477 273.709C204.58 273.709 203.875 273.387 203.363 272.744C202.749 271.969 202.443 270.708 202.443 268.961ZM203.617 268.961C203.617 270.488 203.795 271.506 204.15 272.014C204.51 272.517 204.952 272.769 205.477 272.769C206.001 272.769 206.442 272.515 206.797 272.008C207.157 271.5 207.337 270.484 207.337 268.961C207.337 267.429 207.157 266.411 206.797 265.907C206.442 265.404 205.997 265.152 205.464 265.152C204.939 265.152 204.52 265.374 204.207 265.819C203.814 266.386 203.617 267.433 203.617 268.961Z" fill="#222222"/>
<path d="M267.871 273.55H266.728V266.269C266.453 266.532 266.091 266.794 265.643 267.056C265.198 267.319 264.798 267.515 264.443 267.647V266.542C265.082 266.242 265.64 265.878 266.119 265.45C266.597 265.023 266.935 264.608 267.134 264.206H267.871V273.55ZM270.975 271.398L272.073 271.297C272.166 271.813 272.344 272.187 272.606 272.42C272.868 272.653 273.205 272.769 273.615 272.769C273.966 272.769 274.273 272.689 274.536 272.528C274.802 272.367 275.02 272.154 275.189 271.887C275.359 271.616 275.5 271.252 275.615 270.795C275.729 270.338 275.786 269.873 275.786 269.399C275.786 269.348 275.784 269.272 275.78 269.17C275.551 269.534 275.238 269.83 274.84 270.059C274.447 270.283 274.019 270.395 273.558 270.395C272.788 270.395 272.136 270.116 271.603 269.557C271.07 268.999 270.803 268.262 270.803 267.348C270.803 266.405 271.08 265.645 271.635 265.07C272.193 264.494 272.892 264.206 273.729 264.206C274.335 264.206 274.887 264.369 275.386 264.695C275.89 265.021 276.271 265.486 276.529 266.091C276.791 266.692 276.922 267.564 276.922 268.707C276.922 269.896 276.793 270.844 276.535 271.55C276.277 272.253 275.892 272.788 275.38 273.156C274.872 273.525 274.275 273.709 273.59 273.709C272.862 273.709 272.267 273.508 271.806 273.106C271.345 272.699 271.068 272.13 270.975 271.398ZM275.653 267.291C275.653 266.635 275.477 266.115 275.126 265.73C274.779 265.345 274.36 265.152 273.869 265.152C273.361 265.152 272.919 265.359 272.542 265.774C272.166 266.189 271.978 266.726 271.978 267.386C271.978 267.979 272.155 268.461 272.511 268.834C272.87 269.202 273.313 269.386 273.837 269.386C274.366 269.386 274.8 269.202 275.139 268.834C275.481 268.461 275.653 267.947 275.653 267.291ZM278.211 271.398L279.309 271.297C279.402 271.813 279.58 272.187 279.842 272.42C280.105 272.653 280.441 272.769 280.852 272.769C281.203 272.769 281.51 272.689 281.772 272.528C282.039 272.367 282.257 272.154 282.426 271.887C282.595 271.616 282.737 271.252 282.851 270.795C282.965 270.338 283.022 269.873 283.022 269.399C283.022 269.348 283.02 269.272 283.016 269.17C282.788 269.534 282.474 269.83 282.077 270.059C281.683 270.283 281.256 270.395 280.794 270.395C280.024 270.395 279.373 270.116 278.839 269.557C278.306 268.999 278.04 268.262 278.04 267.348C278.04 266.405 278.317 265.645 278.871 265.07C279.43 264.494 280.128 264.206 280.966 264.206C281.571 264.206 282.123 264.369 282.623 264.695C283.126 265.021 283.507 265.486 283.765 266.091C284.028 266.692 284.159 267.564 284.159 268.707C284.159 269.896 284.03 270.844 283.771 271.55C283.513 272.253 283.128 272.788 282.616 273.156C282.108 273.525 281.512 273.709 280.826 273.709C280.098 273.709 279.504 273.508 279.042 273.106C278.581 272.699 278.304 272.13 278.211 271.398ZM282.889 267.291C282.889 266.635 282.714 266.115 282.362 265.73C282.015 265.345 281.596 265.152 281.105 265.152C280.598 265.152 280.155 265.359 279.779 265.774C279.402 266.189 279.214 266.726 279.214 267.386C279.214 267.979 279.392 268.461 279.747 268.834C280.107 269.202 280.549 269.386 281.074 269.386C281.603 269.386 282.036 269.202 282.375 268.834C282.718 268.461 282.889 267.947 282.889 267.291ZM285.276 268.961C285.276 267.86 285.388 266.976 285.612 266.307C285.841 265.634 286.177 265.116 286.622 264.752C287.07 264.388 287.633 264.206 288.31 264.206C288.809 264.206 289.247 264.308 289.624 264.511C290.001 264.71 290.312 265 290.557 265.381C290.803 265.757 290.995 266.218 291.135 266.764C291.274 267.306 291.344 268.038 291.344 268.961C291.344 270.052 291.232 270.935 291.008 271.608C290.784 272.276 290.447 272.795 289.999 273.163C289.554 273.527 288.991 273.709 288.31 273.709C287.413 273.709 286.708 273.387 286.196 272.744C285.583 271.969 285.276 270.708 285.276 268.961ZM286.45 268.961C286.45 270.488 286.628 271.506 286.983 272.014C287.343 272.517 287.785 272.769 288.31 272.769C288.835 272.769 289.275 272.515 289.63 272.008C289.99 271.5 290.17 270.484 290.17 268.961C290.17 267.429 289.99 266.411 289.63 265.907C289.275 265.404 288.831 265.152 288.297 265.152C287.773 265.152 287.354 265.374 287.041 265.819C286.647 266.386 286.45 267.433 286.45 268.961Z" fill="#222222"/>
<path d="M352.405 272.452V273.55H346.254C346.246 273.275 346.29 273.01 346.388 272.757C346.544 272.338 346.794 271.925 347.137 271.519C347.484 271.112 347.983 270.643 348.635 270.11C349.646 269.28 350.329 268.624 350.685 268.142C351.04 267.655 351.218 267.196 351.218 266.764C351.218 266.312 351.055 265.931 350.729 265.622C350.408 265.309 349.987 265.152 349.466 265.152C348.916 265.152 348.476 265.317 348.146 265.647C347.816 265.977 347.649 266.434 347.644 267.018L346.47 266.898C346.55 266.022 346.853 265.355 347.378 264.898C347.903 264.437 348.607 264.206 349.492 264.206C350.384 264.206 351.091 264.454 351.612 264.949C352.132 265.444 352.392 266.058 352.392 266.79C352.392 267.162 352.316 267.528 352.164 267.888C352.012 268.248 351.758 268.626 351.402 269.024C351.051 269.422 350.465 269.968 349.644 270.662C348.958 271.237 348.518 271.629 348.324 271.836C348.129 272.039 347.968 272.244 347.841 272.452H352.405ZM353.637 268.961C353.637 267.86 353.749 266.976 353.973 266.307C354.202 265.634 354.538 265.116 354.982 264.752C355.431 264.388 355.994 264.206 356.671 264.206C357.17 264.206 357.608 264.308 357.985 264.511C358.361 264.71 358.672 265 358.918 265.381C359.163 265.757 359.356 266.218 359.495 266.764C359.635 267.306 359.705 268.038 359.705 268.961C359.705 270.052 359.593 270.935 359.368 271.608C359.144 272.276 358.808 272.795 358.359 273.163C357.915 273.527 357.352 273.709 356.671 273.709C355.774 273.709 355.069 273.387 354.557 272.744C353.943 271.969 353.637 270.708 353.637 268.961ZM354.811 268.961C354.811 270.488 354.989 271.506 355.344 272.014C355.704 272.517 356.146 272.769 356.671 272.769C357.195 272.769 357.636 272.515 357.991 272.008C358.351 271.5 358.531 270.484 358.531 268.961C358.531 267.429 358.351 266.411 357.991 265.907C357.636 265.404 357.191 265.152 356.658 265.152C356.133 265.152 355.714 265.374 355.401 265.819C355.008 266.386 354.811 267.433 354.811 268.961ZM360.873 268.961C360.873 267.86 360.985 266.976 361.209 266.307C361.438 265.634 361.774 265.116 362.219 264.752C362.667 264.388 363.23 264.206 363.907 264.206C364.406 264.206 364.844 264.308 365.221 264.511C365.598 264.71 365.909 265 366.154 265.381C366.4 265.757 366.592 266.218 366.732 266.764C366.871 267.306 366.941 268.038 366.941 268.961C366.941 270.052 366.829 270.935 366.605 271.608C366.381 272.276 366.044 272.795 365.596 273.163C365.151 273.527 364.588 273.709 363.907 273.709C363.01 273.709 362.305 273.387 361.793 272.744C361.18 271.969 360.873 270.708 360.873 268.961ZM362.047 268.961C362.047 270.488 362.225 271.506 362.58 272.014C362.94 272.517 363.382 272.769 363.907 272.769C364.432 272.769 364.872 272.515 365.227 272.008C365.587 271.5 365.767 270.484 365.767 268.961C365.767 267.429 365.587 266.411 365.227 265.907C364.872 265.404 364.428 265.152 363.894 265.152C363.37 265.152 362.951 265.374 362.638 265.819C362.244 266.386 362.047 267.433 362.047 268.961ZM368.109 268.961C368.109 267.86 368.221 266.976 368.446 266.307C368.674 265.634 369.011 265.116 369.455 264.752C369.903 264.388 370.466 264.206 371.143 264.206C371.643 264.206 372.081 264.308 372.457 264.511C372.834 264.71 373.145 265 373.39 265.381C373.636 265.757 373.828 266.218 373.968 266.764C374.108 267.306 374.178 268.038 374.178 268.961C374.178 270.052 374.065 270.935 373.841 271.608C373.617 272.276 373.28 272.795 372.832 273.163C372.388 273.527 371.825 273.709 371.143 273.709C370.246 273.709 369.542 273.387 369.03 272.744C368.416 271.969 368.109 270.708 368.109 268.961ZM369.284 268.961C369.284 270.488 369.461 271.506 369.817 272.014C370.176 272.517 370.619 272.769 371.143 272.769C371.668 272.769 372.108 272.515 372.464 272.008C372.823 271.5 373.003 270.484 373.003 268.961C373.003 267.429 372.823 266.411 372.464 265.907C372.108 265.404 371.664 265.152 371.131 265.152C370.606 265.152 370.187 265.374 369.874 265.819C369.48 266.386 369.284 267.433 369.284 268.961Z" fill="#222222"/>
<path d="M435.238 272.452V273.55H429.088C429.079 273.275 429.123 273.01 429.221 272.757C429.377 272.338 429.627 271.925 429.97 271.519C430.317 271.112 430.816 270.643 431.468 270.11C432.479 269.28 433.163 268.624 433.518 268.142C433.874 267.655 434.051 267.196 434.051 266.764C434.051 266.312 433.888 265.931 433.563 265.622C433.241 265.309 432.82 265.152 432.299 265.152C431.749 265.152 431.309 265.317 430.979 265.647C430.649 265.977 430.482 266.434 430.478 267.018L429.303 266.898C429.384 266.022 429.686 265.355 430.211 264.898C430.736 264.437 431.44 264.206 432.325 264.206C433.218 264.206 433.924 264.454 434.445 264.949C434.965 265.444 435.226 266.058 435.226 266.79C435.226 267.162 435.15 267.528 434.997 267.888C434.845 268.248 434.591 268.626 434.235 269.024C433.884 269.422 433.298 269.968 432.477 270.662C431.792 271.237 431.352 271.629 431.157 271.836C430.962 272.039 430.801 272.244 430.674 272.452H435.238ZM436.47 268.961C436.47 267.86 436.582 266.976 436.806 266.307C437.035 265.634 437.371 265.116 437.816 264.752C438.264 264.388 438.827 264.206 439.504 264.206C440.003 264.206 440.441 264.308 440.818 264.511C441.195 264.71 441.506 265 441.751 265.381C441.997 265.757 442.189 266.218 442.329 266.764C442.468 267.306 442.538 268.038 442.538 268.961C442.538 270.052 442.426 270.935 442.202 271.608C441.977 272.276 441.641 272.795 441.193 273.163C440.748 273.527 440.185 273.709 439.504 273.709C438.607 273.709 437.902 273.387 437.39 272.744C436.777 271.969 436.47 270.708 436.47 268.961ZM437.644 268.961C437.644 270.488 437.822 271.506 438.177 272.014C438.537 272.517 438.979 272.769 439.504 272.769C440.029 272.769 440.469 272.515 440.824 272.008C441.184 271.5 441.364 270.484 441.364 268.961C441.364 267.429 441.184 266.411 440.824 265.907C440.469 265.404 440.025 265.152 439.491 265.152C438.967 265.152 438.548 265.374 438.234 265.819C437.841 266.386 437.644 267.433 437.644 268.961ZM448.01 273.55H446.867V266.269C446.592 266.532 446.23 266.794 445.782 267.056C445.338 267.319 444.938 267.515 444.582 267.647V266.542C445.221 266.242 445.78 265.878 446.258 265.45C446.736 265.023 447.075 264.608 447.274 264.206H448.01V273.55ZM450.943 268.961C450.943 267.86 451.055 266.976 451.279 266.307C451.507 265.634 451.844 265.116 452.288 264.752C452.737 264.388 453.3 264.206 453.977 264.206C454.476 264.206 454.914 264.308 455.291 264.511C455.667 264.71 455.978 265 456.224 265.381C456.469 265.757 456.662 266.218 456.801 266.764C456.941 267.306 457.011 268.038 457.011 268.961C457.011 270.052 456.899 270.935 456.674 271.608C456.45 272.276 456.114 272.795 455.665 273.163C455.221 273.527 454.658 273.709 453.977 273.709C453.08 273.709 452.375 273.387 451.863 272.744C451.249 271.969 450.943 270.708 450.943 268.961ZM452.117 268.961C452.117 270.488 452.295 271.506 452.65 272.014C453.01 272.517 453.452 272.769 453.977 272.769C454.501 272.769 454.942 272.515 455.297 272.008C455.657 271.5 455.837 270.484 455.837 268.961C455.837 267.429 455.657 266.411 455.297 265.907C454.942 265.404 454.497 265.152 453.964 265.152C453.439 265.152 453.02 265.374 452.707 265.819C452.314 266.386 452.117 267.433 452.117 268.961Z" fill="#222222"/>
<path d="M518.072 272.452V273.55H511.921C511.912 273.275 511.957 273.01 512.054 272.757C512.211 272.338 512.46 271.925 512.803 271.519C513.15 271.112 513.65 270.643 514.301 270.11C515.313 269.28 515.996 268.624 516.352 268.142C516.707 267.655 516.885 267.196 516.885 266.764C516.885 266.312 516.722 265.931 516.396 265.622C516.074 265.309 515.653 265.152 515.133 265.152C514.583 265.152 514.143 265.317 513.812 265.647C513.482 265.977 513.315 266.434 513.311 267.018L512.137 266.898C512.217 266.022 512.52 265.355 513.044 264.898C513.569 264.437 514.274 264.206 515.158 264.206C516.051 264.206 516.758 264.454 517.278 264.949C517.799 265.444 518.059 266.058 518.059 266.79C518.059 267.162 517.983 267.528 517.831 267.888C517.678 268.248 517.424 268.626 517.069 269.024C516.718 269.422 516.132 269.968 515.311 270.662C514.625 271.237 514.185 271.629 513.99 271.836C513.796 272.039 513.635 272.244 513.508 272.452H518.072ZM519.303 268.961C519.303 267.86 519.415 266.976 519.64 266.307C519.868 265.634 520.205 265.116 520.649 264.752C521.097 264.388 521.66 264.206 522.337 264.206C522.837 264.206 523.275 264.308 523.651 264.511C524.028 264.71 524.339 265 524.584 265.381C524.83 265.757 525.022 266.218 525.162 266.764C525.302 267.306 525.372 268.038 525.372 268.961C525.372 270.052 525.259 270.935 525.035 271.608C524.811 272.276 524.474 272.795 524.026 273.163C523.582 273.527 523.019 273.709 522.337 273.709C521.44 273.709 520.736 273.387 520.224 272.744C519.61 271.969 519.303 270.708 519.303 268.961ZM520.478 268.961C520.478 270.488 520.655 271.506 521.011 272.014C521.37 272.517 521.813 272.769 522.337 272.769C522.862 272.769 523.302 272.515 523.658 272.008C524.017 271.5 524.197 270.484 524.197 268.961C524.197 267.429 524.017 266.411 523.658 265.907C523.302 265.404 522.858 265.152 522.325 265.152C521.8 265.152 521.381 265.374 521.068 265.819C520.674 266.386 520.478 267.433 520.478 268.961ZM532.544 272.452V273.55H526.394C526.385 273.275 526.43 273.01 526.527 272.757C526.683 272.338 526.933 271.925 527.276 271.519C527.623 271.112 528.122 270.643 528.774 270.11C529.785 269.28 530.469 268.624 530.824 268.142C531.18 267.655 531.357 267.196 531.357 266.764C531.357 266.312 531.194 265.931 530.869 265.622C530.547 265.309 530.126 265.152 529.605 265.152C529.055 265.152 528.615 265.317 528.285 265.647C527.955 265.977 527.788 266.434 527.784 267.018L526.609 266.898C526.69 266.022 526.992 265.355 527.517 264.898C528.042 264.437 528.746 264.206 529.631 264.206C530.524 264.206 531.23 264.454 531.751 264.949C532.271 265.444 532.532 266.058 532.532 266.79C532.532 267.162 532.456 267.528 532.303 267.888C532.151 268.248 531.897 268.626 531.542 269.024C531.19 269.422 530.604 269.968 529.783 270.662C529.098 271.237 528.658 271.629 528.463 271.836C528.268 272.039 528.107 272.244 527.98 272.452H532.544ZM533.776 268.961C533.776 267.86 533.888 266.976 534.112 266.307C534.341 265.634 534.677 265.116 535.122 264.752C535.57 264.388 536.133 264.206 536.81 264.206C537.309 264.206 537.747 264.308 538.124 264.511C538.501 264.71 538.812 265 539.057 265.381C539.303 265.757 539.495 266.218 539.635 266.764C539.774 267.306 539.844 268.038 539.844 268.961C539.844 270.052 539.732 270.935 539.508 271.608C539.284 272.276 538.947 272.795 538.499 273.163C538.054 273.527 537.491 273.709 536.81 273.709C535.913 273.709 535.208 273.387 534.696 272.744C534.083 271.969 533.776 270.708 533.776 268.961ZM534.95 268.961C534.95 270.488 535.128 271.506 535.483 272.014C535.843 272.517 536.285 272.769 536.81 272.769C537.335 272.769 537.775 272.515 538.13 272.008C538.49 271.5 538.67 270.484 538.67 268.961C538.67 267.429 538.49 266.411 538.13 265.907C537.775 265.404 537.331 265.152 536.797 265.152C536.273 265.152 535.854 265.374 535.541 265.819C535.147 266.386 534.95 267.433 534.95 268.961Z" fill="#222222"/>
<path d="M8.30322 253.961C8.30322 252.86 8.41536 251.976 8.63965 251.307C8.86816 250.634 9.20459 250.116 9.64893 249.752C10.0975 249.388 10.6603 249.206 11.3374 249.206C11.8368 249.206 12.2747 249.308 12.6514 249.511C13.028 249.71 13.339 250 13.5845 250.381C13.8299 250.757 14.0225 251.218 14.1621 251.764C14.3018 252.306 14.3716 253.038 14.3716 253.961C14.3716 255.052 14.2594 255.935 14.0352 256.608C13.8109 257.276 13.4744 257.795 13.0259 258.163C12.5815 258.527 12.0187 258.709 11.3374 258.709C10.4403 258.709 9.73568 258.387 9.22363 257.744C8.61003 256.969 8.30322 255.708 8.30322 253.961ZM9.47754 253.961C9.47754 255.488 9.65527 256.506 10.0107 257.014C10.3704 257.517 10.8127 257.769 11.3374 257.769C11.8621 257.769 12.3022 257.515 12.6577 257.008C13.0174 256.5 13.1973 255.484 13.1973 253.961C13.1973 252.429 13.0174 251.411 12.6577 250.907C12.3022 250.404 11.8579 250.152 11.3247 250.152C10.8 250.152 10.381 250.374 10.0679 250.819C9.67432 251.386 9.47754 252.433 9.47754 253.961Z" fill="#444444"/>
<path d="M5.37061 197.05H4.22803V189.769C3.95296 190.032 3.59115 190.294 3.14258 190.556C2.69824 190.819 2.29834 191.015 1.94287 191.147V190.042C2.58187 189.742 3.14046 189.378 3.61865 188.95C4.09684 188.523 4.43538 188.108 4.63428 187.706H5.37061V197.05ZM8.30322 192.461C8.30322 191.36 8.41536 190.476 8.63965 189.807C8.86816 189.134 9.20459 188.616 9.64893 188.252C10.0975 187.888 10.6603 187.706 11.3374 187.706C11.8368 187.706 12.2747 187.808 12.6514 188.011C13.028 188.21 13.339 188.5 13.5845 188.881C13.8299 189.257 14.0225 189.718 14.1621 190.264C14.3018 190.806 14.3716 191.538 14.3716 192.461C14.3716 193.552 14.2594 194.435 14.0352 195.108C13.8109 195.776 13.4744 196.295 13.0259 196.663C12.5815 197.027 12.0187 197.209 11.3374 197.209C10.4403 197.209 9.73568 196.887 9.22363 196.244C8.61003 195.469 8.30322 194.208 8.30322 192.461ZM9.47754 192.461C9.47754 193.988 9.65527 195.006 10.0107 195.514C10.3704 196.017 10.8127 196.269 11.3374 196.269C11.8621 196.269 12.3022 196.015 12.6577 195.508C13.0174 195 13.1973 193.984 13.1973 192.461C13.1973 190.929 13.0174 189.911 12.6577 189.407C12.3022 188.904 11.8579 188.652 11.3247 188.652C10.8 188.652 10.381 188.874 10.0679 189.319C9.67432 189.886 9.47754 190.933 9.47754 192.461Z" fill="#444444"/>
<path d="M7.07178 134.452V135.55H0.920898C0.912435 135.275 0.956868 135.01 1.0542 134.757C1.21077 134.338 1.46045 133.925 1.80322 133.519C2.15023 133.113 2.64958 132.643 3.30127 132.11C4.31266 131.28 4.99609 130.624 5.35156 130.142C5.70703 129.655 5.88477 129.196 5.88477 128.764C5.88477 128.312 5.72184 127.931 5.396 127.622C5.07438 127.309 4.65332 127.152 4.13281 127.152C3.58268 127.152 3.14258 127.317 2.8125 127.647C2.48242 127.977 2.31527 128.434 2.31104 129.018L1.13672 128.898C1.21712 128.022 1.51969 127.355 2.04443 126.898C2.56917 126.437 3.27376 126.206 4.1582 126.206C5.05111 126.206 5.75781 126.454 6.27832 126.949C6.79883 127.444 7.05908 128.058 7.05908 128.79C7.05908 129.162 6.98291 129.528 6.83057 129.888C6.67822 130.248 6.42432 130.626 6.06885 131.024C5.71761 131.422 5.13151 131.968 4.31055 132.662C3.625 133.237 3.1849 133.629 2.99023 133.836C2.79557 134.039 2.63477 134.245 2.50781 134.452H7.07178ZM8.30322 130.961C8.30322 129.86 8.41536 128.976 8.63965 128.307C8.86816 127.634 9.20459 127.116 9.64893 126.752C10.0975 126.388 10.6603 126.206 11.3374 126.206C11.8368 126.206 12.2747 126.308 12.6514 126.511C13.028 126.71 13.339 127 13.5845 127.381C13.8299 127.757 14.0225 128.218 14.1621 128.764C14.3018 129.306 14.3716 130.038 14.3716 130.961C14.3716 132.052 14.2594 132.935 14.0352 133.608C13.8109 134.276 13.4744 134.795 13.0259 135.163C12.5815 135.527 12.0187 135.709 11.3374 135.709C10.4403 135.709 9.73568 135.387 9.22363 134.744C8.61003 133.969 8.30322 132.708 8.30322 130.961ZM9.47754 130.961C9.47754 132.488 9.65527 133.506 10.0107 134.014C10.3704 134.517 10.8127 134.769 11.3374 134.769C11.8621 134.769 12.3022 134.515 12.6577 134.008C13.0174 133.5 13.1973 132.484 13.1973 130.961C13.1973 129.429 13.0174 128.411 12.6577 127.907C12.3022 127.404 11.8579 127.152 11.3247 127.152C10.8 127.152 10.381 127.374 10.0679 127.819C9.67432 128.386 9.47754 129.433 9.47754 130.961Z" fill="#444444"/>
<path d="M1.07324 71.5935L2.21582 71.4411C2.34701 72.0886 2.56917 72.5562 2.88232 72.8439C3.19971 73.1275 3.5848 73.2692 4.0376 73.2692C4.57503 73.2692 5.02783 73.083 5.396 72.7106C5.76839 72.3383 5.95459 71.877 5.95459 71.3269C5.95459 70.8021 5.7832 70.3705 5.44043 70.0319C5.09766 69.6892 4.66178 69.5178 4.13281 69.5178C3.91699 69.5178 3.64827 69.5601 3.32666 69.6447L3.45361 68.6418C3.52979 68.6503 3.59115 68.6545 3.6377 68.6545C4.12435 68.6545 4.56234 68.5275 4.95166 68.2736C5.34098 68.0197 5.53564 67.6283 5.53564 67.0993C5.53564 66.6804 5.39388 66.3334 5.11035 66.0583C4.82682 65.7832 4.46077 65.6457 4.01221 65.6457C3.56787 65.6457 3.19759 65.7854 2.90137 66.0647C2.60514 66.3439 2.41471 66.7629 2.33008 67.3215L1.1875 67.1184C1.32715 66.3524 1.64453 65.76 2.13965 65.341C2.63477 64.9178 3.25049 64.7063 3.98682 64.7063C4.49463 64.7063 4.96224 64.8163 5.38965 65.0363C5.81706 65.2522 6.1429 65.5484 6.36719 65.925C6.5957 66.3016 6.70996 66.7015 6.70996 67.1247C6.70996 67.5267 6.60205 67.8928 6.38623 68.2229C6.17041 68.5529 5.85091 68.8153 5.42773 69.01C5.97786 69.1369 6.40527 69.4014 6.70996 69.8034C7.01465 70.2012 7.16699 70.7006 7.16699 71.3015C7.16699 72.114 6.87077 72.8037 6.27832 73.3708C5.68587 73.9336 4.93685 74.215 4.03125 74.215C3.21452 74.215 2.53532 73.9717 1.99365 73.4851C1.45622 72.9984 1.14941 72.3679 1.07324 71.5935ZM8.30322 69.4606C8.30322 68.3604 8.41536 67.4759 8.63965 66.8073C8.86816 66.1345 9.20459 65.6161 9.64893 65.2522C10.0975 64.8882 10.6603 64.7063 11.3374 64.7063C11.8368 64.7063 12.2747 64.8078 12.6514 65.0109C13.028 65.2098 13.339 65.4997 13.5845 65.8806C13.8299 66.2572 14.0225 66.7185 14.1621 67.2644C14.3018 67.806 14.3716 68.5381 14.3716 69.4606C14.3716 70.5524 14.2594 71.4348 14.0352 72.1076C13.8109 72.7762 13.4744 73.2946 13.0259 73.6628C12.5815 74.0267 12.0187 74.2087 11.3374 74.2087C10.4403 74.2087 9.73568 73.8871 9.22363 73.2439C8.61003 72.4694 8.30322 71.2084 8.30322 69.4606ZM9.47754 69.4606C9.47754 70.9883 9.65527 72.0061 10.0107 72.5139C10.3704 73.0175 10.8127 73.2692 11.3374 73.2692C11.8621 73.2692 12.3022 73.0153 12.6577 72.5075C13.0174 71.9997 13.1973 70.9841 13.1973 69.4606C13.1973 67.9287 13.0174 66.911 12.6577 66.4074C12.3022 65.9038 11.8579 65.6521 11.3247 65.6521C10.8 65.6521 10.381 65.8742 10.0679 66.3186C9.67432 66.8856 9.47754 67.933 9.47754 69.4606Z" fill="#444444"/>
<path d="M4.72949 12.55V10.322H0.692383V9.27461L4.93896 3.24434H5.87207V9.27461H7.12891V10.322H5.87207V12.55H4.72949ZM4.72949 9.27461V5.07881L1.81592 9.27461H4.72949ZM8.30322 7.96065C8.30322 6.86039 8.41536 5.97595 8.63965 5.30733C8.86816 4.63448 9.20459 4.11608 9.64893 3.75215C10.0975 3.38822 10.6603 3.20625 11.3374 3.20625C11.8368 3.20625 12.2747 3.30782 12.6514 3.51094C13.028 3.70983 13.339 3.99971 13.5845 4.38057C13.8299 4.7572 14.0225 5.21846 14.1621 5.76436C14.3018 6.30603 14.3716 7.03812 14.3716 7.96065C14.3716 9.05244 14.2594 9.93477 14.0352 10.6076C13.8109 11.2762 13.4744 11.7946 13.0259 12.1628C12.5815 12.5267 12.0187 12.7087 11.3374 12.7087C10.4403 12.7087 9.73568 12.3871 9.22363 11.7439C8.61003 10.9694 8.30322 9.70837 8.30322 7.96065ZM9.47754 7.96065C9.47754 9.48832 9.65527 10.5061 10.0107 11.0139C10.3704 11.5175 10.8127 11.7692 11.3374 11.7692C11.8621 11.7692 12.3022 11.5153 12.6577 11.0075C13.0174 10.4997 13.1973 9.48409 13.1973 7.96065C13.1973 6.42875 13.0174 5.41101 12.6577 4.90742C12.3022 4.40384 11.8579 4.15205 11.3247 4.15205C10.8 4.15205 10.381 4.37422 10.0679 4.81856C9.67432 5.38562 9.47754 6.43298 9.47754 7.96065Z" fill="#444444"/>
</svg>
